<svg width="24" height="24" viewBox="0 0 24 24" fill="none" xmlns="http://www.w3.org/2000/svg">
<path d="M17.472 14.382C17.367 14.382 17.12 14.3 16.945 14.225C16.77 14.15 15.97 13.88 15.795 13.83C15.62 13.78 15.5 13.75 15.38 13.925C15.26 14.1 14.81 14.6 14.685 14.75C14.56 14.9 14.435 14.925 14.26 14.85C14.085 14.775 13.535 14.6 12.885 14.025C12.41 13.6 12.06 13.075 11.935 12.9C11.81 12.725 11.91 12.6 12.01 12.5C12.1 12.4 12.21 12.25 12.31 12.125C12.41 12 12.435 11.9 12.51 11.75C12.585 11.6 12.535 11.475 12.485 11.375C12.435 11.275 11.935 10.025 11.76 9.575C11.585 9.125 11.41 9.2 11.285 9.2C11.16 9.2 11.01 9.175 10.885 9.175C10.76 9.175 10.51 9.225 10.31 9.4C10.11 9.575 9.56 10.1 9.56 11.1C9.56 12.1 10.36 13.05 10.46 13.175C10.56 13.3 11.86 15.025 13.86 15.825C14.36 16.05 14.76 16.175 15.06 16.25C15.51 16.375 15.91 16.35 16.21 16.3C16.56 16.225 17.22 15.9 17.42 15.55C17.62 15.2 17.67 14.9 17.72 14.8C17.77 14.7 17.72 14.6 17.67 14.525C17.62 14.45 17.472 14.382 17.472 14.382Z" fill="currentColor"/>
<path d="M12.04 2C6.58 2 2.13 6.45 2.13 11.91C2.13 13.66 2.59 15.36 3.45 16.86L2.05 22L7.3 20.62C8.75 21.41 10.38 21.83 12.04 21.83C17.5 21.83 21.95 17.38 21.95 11.92C21.95 9.27 20.92 6.78 19.05 4.91C17.18 3.03 14.69 2 12.04 2ZM12.05 20.13C10.58 20.13 9.15 19.74 7.89 19L7.58 18.83L4.78 19.65L5.6 16.96L5.42 16.64C4.64 15.33 4.2 13.85 4.2 12.31C4.2 7.63 7.85 3.97 12.54 3.97C14.69 3.97 16.73 4.89 18.27 6.43C19.81 7.97 20.73 10.01 20.73 12.16C20.73 16.85 17.07 20.5 12.38 20.5L12.05 20.13Z" fill="currentColor"/>
</svg>
