<svg width="20" height="20" viewBox="0 0 20 20" fill="none" xmlns="http://www.w3.org/2000/svg">
<path d="M15.7494 19.9979C15.609 19.9984 15.4721 19.9516 15.3581 19.8639L9.99896 15.702L4.63983 19.8639C4.52533 19.9529 4.3874 20.0005 4.24596 20C4.10452 19.9994 3.96691 19.9507 3.85302 19.8609C3.73913 19.771 3.65487 19.6447 3.61241 19.5002C3.56996 19.3557 3.57151 19.2004 3.61684 19.0569L5.70699 12.4253L0.289936 8.44592C0.172598 8.35982 0.0840393 8.23578 0.0371972 8.09193C-0.00964488 7.94807 -0.0123149 7.79194 0.0295772 7.64635C0.0714693 7.50076 0.155728 7.37333 0.270043 7.28268C0.384357 7.19204 0.522736 7.14293 0.664962 7.14253H7.34794L9.36475 0.493915C9.40819 0.350374 9.49297 0.225262 9.60691 0.136529C9.72084 0.0477952 9.85809 0 9.99896 0C10.1398 0 10.2771 0.0477952 10.391 0.136529C10.505 0.225262 10.5897 0.350374 10.6332 0.493915L12.65 7.14476H19.333C19.4754 7.14469 19.614 7.19345 19.7287 7.28392C19.8434 7.37439 19.928 7.50181 19.9701 7.64752C20.0123 7.79322 20.0098 7.94956 19.963 8.09363C19.9162 8.2377 19.8275 8.36194 19.7101 8.44815L14.2909 12.4253L16.3798 19.0551C16.4137 19.1625 16.4232 19.2769 16.4076 19.3889C16.392 19.501 16.3518 19.6075 16.2902 19.6996C16.2286 19.7917 16.1474 19.8668 16.0534 19.9186C15.9593 19.9705 15.8551 19.9976 15.7494 19.9979Z" fill="#B7F34D"/>
</svg>
